<svg width="64" height="64" viewBox="0 0 64 64" fill="none" xmlns="http://www.w3.org/2000/svg">
<rect width="64" height="64" fill="#3D4761"/>
<circle cx="14" cy="14" r="12" fill="#F5222D"/>
<circle cx="14" cy="39" r="12" fill="#722ED1"/>
<circle cx="39" cy="14" r="12" fill="#FADB14"/>
<path d="M17.92 61C17.44 61 17.032 60.856 16.696 60.568C16.408 60.232 16.264 59.824 16.264 59.344V12.328C16.264 11.8 16.408 11.392 16.696 11.104C17.032 10.768 17.44 10.6 17.92 10.6H21.52C22.288 10.6 22.912 10.984 23.392 11.752L38.584 40.84L53.92 11.752C54.016 11.464 54.208 11.2 54.496 10.96C54.832 10.72 55.24 10.6 55.72 10.6H59.248C59.776 10.6 60.184 10.768 60.472 11.104C60.808 11.392 60.976 11.8 60.976 12.328V59.344C60.976 59.824 60.808 60.232 60.472 60.568C60.136 60.856 59.728 61 59.248 61H55.72C55.24 61 54.832 60.856 54.496 60.568C54.208 60.232 54.064 59.824 54.064 59.344V23.92L42.04 47.392C41.56 48.4 40.792 48.904 39.736 48.904H37.504C36.448 48.904 35.68 48.4 35.2 47.392L23.104 23.92V59.344C23.104 59.824 22.936 60.232 22.6 60.568C22.312 60.856 21.928 61 21.448 61H17.92Z" fill="#E0E0E0"/>
</svg>
